<svg id="Component_58_1" data-name="Component 58 – 1" xmlns="http://www.w3.org/2000/svg" xmlns:xlink="http://www.w3.org/1999/xlink" width="65.006" height="61.588" viewBox="0 0 65.006 61.588">
  <defs>
    <clipPath id="clip-path">
      <rect id="Rectangle_4" data-name="Rectangle 4" width="65.006" height="61.588" fill="none"/>
    </clipPath>
  </defs>
  <path id="Path_104" data-name="Path 104" d="M43.2-10,20.225,12.973-2.748-10-10-2.748,12.973,20.225-10,43.2l7.252,7.252L20.225,27.477,43.2,50.449,50.449,43.2,27.477,20.225,50.449-2.748Z" transform="translate(12.279 10.569)"/>
  <g id="Group_27" data-name="Group 27" transform="translate(0)">
    <g id="Group_26" data-name="Group 26" transform="translate(0 0)" clip-path="url(#clip-path)">
      <path id="Path_105" data-name="Path 105" d="M44.675-1.612V-6.607L21.7,16.366V21.7L-1.269-2.092V-6.607L-6.606-1.271,16.366,21.7-6.606,44.674h5.063S21.429,21.975,21.7,21.7v5.337L44.675,50.011V44.88c-.205-.205-22.9-23.178-22.9-23.178Z" transform="translate(10.8 9.092)" fill="#fff"/>
    </g>
  </g>
</svg>
