<svg id="Component_52_1" data-name="Component 52 – 1" xmlns="http://www.w3.org/2000/svg" width="30.758" height="30.751" viewBox="0 0 30.758 30.751">
  <g id="Group_393" data-name="Group 393" transform="translate(-16.82 -16.824)">
    <path id="Icon_awesome-instagram" data-name="Icon awesome-instagram" d="M15.377,9.729a7.884,7.884,0,1,0,7.884,7.884A7.872,7.872,0,0,0,15.377,9.729Zm0,13.01A5.126,5.126,0,1,1,20.5,17.613a5.135,5.135,0,0,1-5.126,5.126ZM25.422,9.406a1.839,1.839,0,1,1-1.839-1.839A1.835,1.835,0,0,1,25.422,9.406Zm5.222,1.866A9.1,9.1,0,0,0,28.16,4.83a9.16,9.16,0,0,0-6.443-2.484C19.178,2.2,11.569,2.2,9.03,2.346A9.147,9.147,0,0,0,2.587,4.823,9.13,9.13,0,0,0,.1,11.266C-.041,13.8-.041,21.414.1,23.953A9.1,9.1,0,0,0,2.587,30.4,9.172,9.172,0,0,0,9.03,32.88c2.539.144,10.148.144,12.687,0A9.1,9.1,0,0,0,28.16,30.4a9.16,9.16,0,0,0,2.484-6.443c.144-2.539.144-10.142,0-12.68Zm-3.28,15.4A5.189,5.189,0,0,1,24.441,29.6c-2.024.8-6.827.618-9.064.618S8.33,30.4,6.313,29.6A5.189,5.189,0,0,1,3.39,26.677c-.8-2.024-.618-6.827-.618-9.064s-.178-7.047.618-9.064A5.189,5.189,0,0,1,6.313,5.626c2.024-.8,6.827-.618,9.064-.618s7.047-.178,9.064.618a5.189,5.189,0,0,1,2.923,2.923c.8,2.024.618,6.827.618,9.064S28.167,24.66,27.364,26.677Z" transform="translate(16.825 14.586)"/>
  </g>
</svg>
