<svg xmlns="http://www.w3.org/2000/svg" width="347.454" height="84.46" viewBox="0 0 347.454 84.46">
  <g id="Group_485" data-name="Group 485" transform="translate(-63.346 -101)">
    <g id="Component_3_49" data-name="Component 3 – 49" transform="translate(133.727 101)">
      <path id="Path_181" data-name="Path 181" d="M342.934,72.113V61.085a21.116,21.116,0,0,1-24.517.587c-1.641,1.76-5.278,5.747-6.569,6.92a30.9,30.9,0,0,0,18.534,6.217,30.153,30.153,0,0,0,12.551-2.7" transform="translate(-82.752 -1.964)" fill="#fff"/>
      <path id="Path_186" data-name="Path 186" d="M239.37,74.13h25.1l8.914-8.682H248.754Z" transform="translate(-80.422 -2.104)" fill="#fff"/>
      <g id="Group_38" data-name="Group 38" transform="translate(-128.727 -47.606)">
        <path id="Path_183" data-name="Path 183" d="M166.338,13.374h15.836c4.223,0,7.742.821,10.322,2.58l6.1-8.564a28.966,28.966,0,0,0-15.132-3.753h-26.51v77.3c2.7-2.58,9.384-8.445,9.384-8.445V13.374Z" transform="translate(50.955 47.489)" fill="#fff"/>
        <path id="Path_184" data-name="Path 184" d="M190.112,28.562c0,4.341-2.815,5.866-9.033,5.866h-5.043c-2.23,1.641-9.384,6.569-9.384,6.569h17.595c10.558,0,14.781-8.8,14.781-14.546s-3.989-8.681-6.217-10.088L187.3,23.4c2.229,1.407,2.815,2.463,2.815,5.161" transform="translate(50.643 47.08)" fill="#fff"/>
        <path id="Path_185" data-name="Path 185" d="M258.414,42.347l8.564-8.211H248.443l-9.384,8.094V13.02h24.868l9.149-9.383h-43.4V81.058l9.384-8.915v-29.8Z" transform="translate(48.617 47.489)" fill="#fff"/>
        <path id="Path_187" data-name="Path 187" d="M86.952,52.669V13.02l9.384-9.383H77.569V53.256a29.089,29.089,0,0,0,5.278,16.775l7.272-6.57a20.056,20.056,0,0,1-3.167-10.792" transform="translate(53.506 47.489)" fill="#fff"/>
        <path id="Path_188" data-name="Path 188" d="M304.683,73.511l6.452-6.8a30.627,30.627,0,0,1,.7-49.268,30.532,30.532,0,0,1,30.381-3.05l12.9-2.7a41.355,41.355,0,0,0-25.572-9.266,39.9,39.9,0,0,0-24.869,71.086" transform="translate(46.688 47.528)" fill="#fff"/>
        <path id="Path_190" data-name="Path 190" d="M106.963,72.26a19.575,19.575,0,0,0,19.706-19.59V13.02l9.385-9.383h-18.77V53.256a10.373,10.373,0,0,1-19.824,4.106l-6.8,6.1a19.294,19.294,0,0,0,16.306,8.8" transform="translate(53.086 47.489)" fill="#fff"/>
        <path id="Path_191" data-name="Path 191" d="M201.842,57.417c0-4.693-2.112-8.916-8.682-11.966l-5.4,6.569c3.286.939,5.044,2.7,5.044,6.453,0,4.34-1.995,6.334-9.619,6.334h-7.155l-9.384,9.033h17.595c12.083,0,17.6-8.681,17.6-16.423" transform="translate(50.643 46.145)" fill="#fff"/>
        <path id="Path_194" data-name="Path 194" d="M106.465,84.5A31.339,31.339,0,0,0,137.9,53.178V1.212H114.441V53.178a7.813,7.813,0,0,1-7.976,7.86,7.715,7.715,0,0,1-7.861-7.86V1.212H75.143V53.178A31.239,31.239,0,0,0,106.465,84.5m0-21.114a10.166,10.166,0,0,0,10.322-10.206V3.559h18.769l-9.384,9.384V52.592a19.576,19.576,0,0,1-19.706,19.59,19.3,19.3,0,0,1-16.306-8.8l6.8-6.1a10.128,10.128,0,0,0,9.5,6.1M77.49,53.178V3.559H96.259l-9.385,9.384V52.592a20.048,20.048,0,0,0,3.168,10.792l-7.273,6.569A29.1,29.1,0,0,1,77.49,53.178" transform="translate(53.584 47.567)"/>
        <path id="Path_195" data-name="Path 195" d="M213.183,58.105c0-9.384-5.279-15.484-13.021-17.361,6.335-3.05,9.619-11.614,9.619-17.595,0-13.374-10.439-21.937-27.1-21.937H154.53V83.326h30.265c16.658,0,28.388-12.2,28.388-25.22M166.26,72.417s-6.686,5.865-9.384,8.445V3.559h26.511A28.97,28.97,0,0,1,198.52,7.311l-6.1,8.565c2.229,1.406,6.218,4.339,6.218,10.088s-4.224,14.545-14.781,14.545h-17.6V72.417l9.385-9.033H182.8c7.625,0,9.619-1.994,9.619-6.335,0-3.754-1.76-5.513-5.044-6.452l5.4-6.569c6.57,3.05,8.682,7.272,8.682,11.966,0,7.742-5.514,16.423-17.6,16.423Zm23.813-15.368c0,2.7-1.524,3.989-5.983,3.989h-6.1v-8.21h5.747c4.927,0,6.335,1.056,6.335,4.222" transform="translate(51.032 47.567)"/>
        <path id="Path_196" data-name="Path 196" d="M166.651,13.7V40.911s7.154-4.927,9.384-6.569h5.043c6.217,0,9.033-1.525,9.033-5.866,0-2.7-.587-3.753-2.815-5.161l5.513-7.038c-2.58-1.761-6.1-2.581-10.322-2.581Zm21.114,14.78c0,2.347-1.641,3.637-5.747,3.637h-3.636V23.9H181.9c4.341,0,5.865,1.761,5.865,4.575" transform="translate(50.643 47.166)"/>
        <path id="Path_197" data-name="Path 197" d="M275.346,61.037H250.712v-8.21h18.768V31.712H250.712V23.5h24.634V1.212h-48.1V83.326h48.1ZM264.084,72.065h-25.1L229.6,80.98V3.559H273l-9.149,9.383H238.98v29.21l9.385-8.1H266.9l-8.563,8.212H238.98v29.8l9.385-8.682H273Z" transform="translate(48.695 47.567)"/>
        <path id="Path_198" data-name="Path 198" d="M329.474,84.46A42.375,42.375,0,0,0,359.035,72.5L342.26,55.955A18.622,18.622,0,0,1,329.474,61a18.769,18.769,0,1,1,0-37.538,18.469,18.469,0,0,1,12.317,4.693l16.775-16.541A42.232,42.232,0,1,0,329.474,84.46m0-82.113a41.359,41.359,0,0,1,25.572,9.266l-12.9,2.7a30.531,30.531,0,0,0-30.382,3.051,30.625,30.625,0,0,0-.7,49.267c1.291-1.173,4.927-5.161,6.569-6.92a21.12,21.12,0,0,0,24.517-.587V70.149a30.153,30.153,0,0,1-12.551,2.7,30.9,30.9,0,0,1-18.534-6.217l-6.452,6.8A39.9,39.9,0,0,1,329.474,2.347" transform="translate(46.766 47.606)"/>
      </g>
    </g>
    <g id="Component_3_50" data-name="Component 3 – 50" transform="translate(63.346 102.173)">
      <g id="Group_38-2" data-name="Group 38" transform="translate(-58.346 -48.779)">
        <path id="Path_179" data-name="Path 179" d="M49.735,57.417c0-4.693-2.112-8.916-8.681-11.966l-5.4,6.569c3.285.939,5.044,2.7,5.044,6.453,0,4.34-1.995,6.334-9.62,6.334H23.928l-9.384,9.033h17.6c12.083,0,17.6-8.681,17.6-16.423" transform="translate(55.532 46.145)" fill="#fff"/>
        <path id="Path_180" data-name="Path 180" d="M14.232,13.374H30.068c4.224,0,7.742.821,10.323,2.58l6.1-8.564A28.966,28.966,0,0,0,31.359,3.637H4.849v77.3c2.7-2.58,9.383-8.445,9.383-8.445V13.374Z" transform="translate(55.844 47.489)" fill="#fff"/>
        <path id="Path_189" data-name="Path 189" d="M38,28.562c0,4.341-2.815,5.866-9.032,5.866H23.928C21.7,36.069,14.544,41,14.544,41h17.6C42.7,41,46.92,32.2,46.92,26.451S42.932,17.77,40.7,16.363L35.19,23.4C37.419,24.808,38,25.864,38,28.562" transform="translate(55.532 47.08)" fill="#fff"/>
        <path id="Path_192" data-name="Path 192" d="M61.076,58.105c0-9.384-5.279-15.484-13.021-17.361,6.335-3.05,9.619-11.614,9.619-17.595,0-13.374-10.44-21.937-27.1-21.937H2.424V83.326H32.689c16.657,0,28.387-12.2,28.387-25.22M14.153,72.417S7.467,78.282,4.77,80.862V3.559h26.51A28.97,28.97,0,0,1,46.413,7.311l-6.1,8.565c2.229,1.406,6.217,4.339,6.217,10.088S42.307,40.509,31.75,40.509h-17.6V72.417l9.385-9.033h7.155c7.625,0,9.619-1.994,9.619-6.335,0-3.754-1.761-5.513-5.044-6.452l5.4-6.569c6.569,3.05,8.681,7.272,8.681,11.966,0,7.742-5.513,16.423-17.6,16.423ZM37.966,57.049c0,2.7-1.524,3.989-5.982,3.989h-6.1v-8.21h5.748c4.926,0,6.334,1.056,6.334,4.222" transform="translate(55.922 47.567)"/>
        <path id="Path_193" data-name="Path 193" d="M14.544,13.7V40.911s7.155-4.927,9.384-6.569h5.044c6.217,0,9.032-1.525,9.032-5.866,0-2.7-.587-3.753-2.815-5.161L40.7,16.277C38.122,14.517,34.6,13.7,30.38,13.7Zm21.115,14.78c0,2.347-1.642,3.637-5.747,3.637H26.274V23.9h3.518c4.342,0,5.866,1.761,5.866,4.575" transform="translate(55.532 47.166)"/>
      </g>
    </g>
  </g>
</svg>
