<svg id="Component_56_1" data-name="Component 56 – 1" xmlns="http://www.w3.org/2000/svg" width="32.629" height="45.682" viewBox="0 0 32.629 45.682">
  <path id="Path_179" data-name="Path 179" d="M34.122,52.108c0-2.611-1.175-4.96-4.829-6.657l-3,3.654A3.328,3.328,0,0,1,29.1,52.7c0,2.414-1.11,3.524-5.352,3.524H19.765l-5.221,5.025h9.789c6.722,0,9.789-4.829,9.789-9.136" transform="translate(-8.019 -21.631)" fill="#fff"/>
  <path id="Path_180" data-name="Path 180" d="M10.069,9.054h8.81a10.128,10.128,0,0,1,5.743,1.435l3.393-4.764A16.115,16.115,0,0,0,19.6,3.637H4.849V46.643c1.5-1.435,5.22-4.7,5.22-4.7V9.054Z" transform="translate(-3.543 -2.331)" fill="#fff"/>
  <path id="Path_189" data-name="Path 189" d="M27.6,23.149c0,2.415-1.566,3.263-5.025,3.263H19.765c-1.24.913-5.221,3.654-5.221,3.654h9.789a8.055,8.055,0,0,0,8.222-8.092A6.534,6.534,0,0,0,29.1,16.363L26.03,20.279A2.757,2.757,0,0,1,27.6,23.149" transform="translate(-8.019 -8.205)" fill="#fff"/>
  <path id="Path_192" data-name="Path 192" d="M35.053,32.863c0-5.221-2.937-8.614-7.244-9.658,3.524-1.7,5.351-6.461,5.351-9.788,0-7.44-5.808-12.2-15.075-12.2H2.424V46.894H19.261c9.267,0,15.792-6.786,15.792-14.031m-26.1,7.962s-3.72,3.263-5.22,4.7V2.518H18.478A16.116,16.116,0,0,1,26.9,4.605L23.5,9.37a6.533,6.533,0,0,1,3.458,5.612,8.055,8.055,0,0,1-8.222,8.092H8.949V40.825L14.171,35.8h3.981c4.242,0,5.352-1.109,5.352-3.524A3.328,3.328,0,0,0,20.7,28.686l3-3.654c3.654,1.7,4.829,4.046,4.829,6.657,0,4.307-3.067,9.136-9.789,9.136ZM22.2,32.276c0,1.5-.848,2.219-3.328,2.219H15.476V29.927h3.2c2.741,0,3.524.587,3.524,2.349" transform="translate(-2.424 -1.212)"/>
  <path id="Path_193" data-name="Path 193" d="M14.544,13.7v15.14s3.981-2.741,5.221-3.654h2.806c3.459,0,5.025-.849,5.025-3.263a2.758,2.758,0,0,0-1.566-2.871L29.1,15.132A10.125,10.125,0,0,0,23.354,13.7Zm11.747,8.222c0,1.306-.914,2.023-3.2,2.023H21.07V19.373h1.957c2.415,0,3.263.979,3.263,2.545" transform="translate(-8.019 -6.974)"/>
</svg>
