<svg id="Component_2_38" data-name="Component 2 – 38" xmlns="http://www.w3.org/2000/svg" width="117.255" height="81.373" viewBox="0 0 117.255 81.373">
  <path id="Path_245" data-name="Path 245" d="M1850.742,12.23l7.522-7.744H1745.546V19.974l7.523-7.744Z" transform="translate(-1743.333 -2.274)" fill="#fff"/>
  <path id="Path_247" data-name="Path 247" d="M1850.742,75.732l7.522-7.744H1745.546V83.476l7.523-7.744Z" transform="translate(-1743.333 -4.316)" fill="#fff"/>
  <path id="Path_1143" data-name="Path 1143" d="M1850.742,75.732l7.522-7.744H1745.546V83.476l7.523-7.744Z" transform="translate(-1743.333 -35.316)" fill="#fff"/>
  <path id="Path_248" data-name="Path 248" d="M1743.26,22.114h117.255V2.2H1743.26Zm2.214-17.7h112.717l-7.522,7.744h-97.674l-7.521,7.744Z" transform="translate(-1743.26 -2.201)"/>
  <path id="Path_250" data-name="Path 250" d="M1743.26,85.616h117.255V65.7H1743.26Zm2.214-17.7h112.717l-7.522,7.745h-97.674l-7.521,7.744Z" transform="translate(-1743.26 -4.242)"/>
  <path id="Path_1142" data-name="Path 1142" d="M1743.26,85.616h117.255V65.7H1743.26Zm2.214-17.7h112.717l-7.522,7.745h-97.674l-7.521,7.744Z" transform="translate(-1743.26 -35.242)"/>
</svg>
