<svg id="Component_54_1" data-name="Component 54 – 1" xmlns="http://www.w3.org/2000/svg" xmlns:xlink="http://www.w3.org/1999/xlink" width="33.767" height="32.197" viewBox="0 0 33.767 32.197">
  <defs>
    <clipPath id="clip-path">
      <rect id="Rectangle_219" data-name="Rectangle 219" width="33.767" height="32.197" fill="none"/>
    </clipPath>
  </defs>
  <g id="Group_406" data-name="Group 406">
    <g id="Group_147" data-name="Group 147" transform="translate(0 0)" clip-path="url(#clip-path)">
      <path id="Path_265" data-name="Path 265" d="M22.852,7.853l7.3-2.435,3.612,11.309-7.7,2.513,4.476,6.047L20.968,32.2l-4.162-5.654L12.722,32.2l-9.5-6.911,4.319-5.968L0,16.884,3.691,5.733l7.382,2.434V0h11.78Zm-6.047,8.4L9.894,18.69,5.34,24.815l5.418-.471s5.733-7.46,6.125-8.01v7.931l4.4,5.89c.707-1.728,1.257-3.534,1.806-5.261l-6.2-8.638,10.445-3.848s1.335-3.455,1.806-5.183c-2.434.785-5.654,1.963-7.7,2.592l-4.555,6.439V4.476s3.063-1.963,4.477-3.062H12.486V10.13L4.633,7.539c-.943,2.905-1.806,5.183-2.827,8.4,1.727-1.021,5.261-3.534,5.261-3.534Z" transform="translate(0 0)"/>
      <path id="Path_266" data-name="Path 266" d="M17.787,17.024l-6.911,2.434L6.322,25.583l5.418-.471s5.733-7.46,6.125-8.01v7.931l4.4,5.89c.707-1.728,1.257-3.534,1.806-5.261l-6.2-8.638L28.31,13.176s1.335-3.455,1.806-5.183c-2.434.785-5.654,1.963-7.7,2.592l-4.555,6.439V5.244s3.063-1.963,4.477-3.062H13.468V10.9L5.615,8.307c-.943,2.905-1.806,5.183-2.827,8.4,1.727-1.021,5.261-3.534,5.261-3.534Z" transform="translate(-0.982 -0.768)" fill="#fff"/>
    </g>
  </g>
  <path id="Path_1144" data-name="Path 1144" d="M17.787,17.024l-6.911,2.434L6.322,25.583l5.418-.471s5.733-7.46,6.125-8.01v7.931l4.4,5.89c.707-1.728,1.257-3.534,1.806-5.261l-6.2-8.638L28.31,13.176s1.335-3.455,1.806-5.183c-2.434.785-5.654,1.963-7.7,2.592l-4.555,6.439V5.244s3.063-1.963,4.477-3.062H13.468V10.9L5.615,8.307c-.943,2.905-1.806,5.183-2.827,8.4,1.727-1.021,5.261-3.534,5.261-3.534Z" transform="translate(-0.982 -0.768)" fill="#fff"/>
</svg>
