<svg id="Component_51_1" data-name="Component 51 – 1" xmlns="http://www.w3.org/2000/svg" width="32.844" height="26.64" viewBox="0 0 32.844 26.64">
  <g id="Group_392" data-name="Group 392" transform="translate(-15.738 -18.765)">
    <path id="Path_39" data-name="Path 39" d="M48.4,28.64c12.408,0,19.159-10.218,19.159-19.159V8.569A14.832,14.832,0,0,0,70.844,5.1,15.147,15.147,0,0,1,67.012,6.2a7.1,7.1,0,0,0,2.919-3.649,16.736,16.736,0,0,1-4.2,1.642A6.516,6.516,0,0,0,60.808,2a6.855,6.855,0,0,0-6.751,6.751,3.557,3.557,0,0,0,.182,1.46A18.865,18.865,0,0,1,40.372,3.095a6.988,6.988,0,0,0-.912,3.467,7.25,7.25,0,0,0,2.919,5.656,6.151,6.151,0,0,1-3.1-.912h0a6.668,6.668,0,0,0,5.474,6.569,5.625,5.625,0,0,1-1.825.182,3.105,3.105,0,0,1-1.277-.182,6.913,6.913,0,0,0,6.386,4.744,13.776,13.776,0,0,1-8.393,2.919A5.052,5.052,0,0,1,38,25.356,17.223,17.223,0,0,0,48.4,28.64" transform="translate(-22.262 16.765)" fill-rule="evenodd"/>
  </g>
</svg>
