<?xml version="1.0" standalone="no"?>
<!DOCTYPE svg PUBLIC "-//W3C//DTD SVG 20010904//EN"
 "http://www.w3.org/TR/2001/REC-SVG-20010904/DTD/svg10.dtd">
<svg version="1.0" xmlns="http://www.w3.org/2000/svg"
 width="469.000000pt" height="469.000000pt" viewBox="0 0 469.000000 469.000000"
 preserveAspectRatio="xMidYMid meet">
<metadata>
Created by potrace 1.14, written by Peter Selinger 2001-2017
</metadata>
<g transform="translate(0.000000,469.000000) scale(0.100000,-0.100000)"
fill="#000000" stroke="none">
<path d="M2 2343 l3 -2338 2338 -3 2337 -2 0 2340 0 2340 -2340 0 -2340 0 2
-2337z m2652 652 c73 -110 195 -297 271 -415 77 -118 160 -244 185 -280 74
-104 122 -188 116 -198 -3 -5 -17 -13 -32 -16 -14 -4 -43 -18 -65 -31 -40 -26
-59 -31 -59 -16 0 20 -94 128 -147 168 -146 109 -281 153 -488 160 -268 10
-388 -29 -703 -227 -22 -14 -25 -13 -67 35 -24 27 -58 74 -76 103 -28 47 -31
56 -20 80 17 36 144 215 325 457 196 263 249 327 379 466 l109 116 70 -101
c38 -55 129 -191 202 -301z m-48 -681 c157 -32 295 -112 389 -225 61 -72 61
-74 17 -132 -22 -29 -46 -65 -53 -80 -8 -18 -38 -43 -78 -67 -66 -38 -81 -41
-81 -15 0 31 -56 129 -100 178 -30 33 -49 65 -54 88 -9 51 -55 116 -107 151
-126 85 -283 69 -377 -37 -38 -43 -62 -100 -62 -145 0 -12 -14 -38 -30 -57
-17 -18 -42 -57 -56 -86 l-27 -52 -63 70 c-35 39 -93 97 -128 131 l-64 61 67
43 c102 68 239 136 316 159 140 42 333 48 491 15z m-1041 -59 c14 -25 47 -71
72 -101 l45 -56 -31 -32 c-54 -56 -46 -76 73 -192 60 -59 131 -117 167 -137
l63 -36 12 -72 c56 -329 418 -476 682 -277 88 66 162 201 162 295 0 37 29 73
58 73 35 0 50 -23 55 -89 14 -163 144 -312 312 -355 134 -36 280 -3 380 86
l37 31 23 -29 c13 -16 38 -48 55 -71 l31 -43 -263 0 c-145 0 -463 -3 -708 -7
-606 -9 -1910 -6 -1910 5 0 3 80 127 185 287 138 210 263 411 365 588 57 97
105 177 106 177 1 0 14 -20 29 -45z m924 -56 c61 -31 100 -73 116 -126 6 -22
6 -22 -52 5 -52 24 -69 27 -169 27 -109 0 -113 -1 -183 -37 l-71 -36 6 26 c11
43 30 75 66 108 52 50 86 63 159 64 54 0 77 -6 128 -31z m-642 -263 c118 -123
129 -137 125 -165 -2 -17 -10 -31 -16 -31 -23 0 -131 82 -209 158 -103 101
-106 107 -71 143 15 16 31 29 35 29 3 0 65 -60 136 -134z m1076 -169 c-4 -20
-9 -22 -39 -19 l-34 4 32 19 c43 23 46 23 41 -4z"/>
</g>
</svg>
