<?xml version="1.0" standalone="no"?>
<!DOCTYPE svg PUBLIC "-//W3C//DTD SVG 20010904//EN"
 "http://www.w3.org/TR/2001/REC-SVG-20010904/DTD/svg10.dtd">
<svg version="1.0" xmlns="http://www.w3.org/2000/svg"
 width="183.000000pt" height="183.000000pt" viewBox="0 0 183.000000 183.000000"
 preserveAspectRatio="xMidYMid meet">
<metadata>
Created by potrace 1.14, written by Peter Selinger 2001-2017
</metadata>
<g transform="translate(0.000000,183.000000) scale(0.100000,-0.100000)"
fill="#000000" stroke="none">
<path d="M260 916 l0 -916 383 0 c428 0 467 5 605 72 79 39 217 169 252 238
80 158 88 311 24 447 -32 66 -119 147 -185 170 -27 10 -49 20 -49 23 0 3 14
14 31 24 44 26 113 125 139 198 99 288 -51 553 -361 634 -53 14 -129 18 -451
21 l-388 4 0 -915z m808 839 c92 -22 164 -55 158 -72 -9 -23 -119 -173 -126
-173 -4 0 -29 10 -56 23 -46 20 -65 22 -286 25 l-238 4 0 -659 0 -659 -67 -60
c-38 -32 -85 -74 -105 -93 l-38 -33 0 856 0 856 348 0 c272 0 361 -4 410 -15z
m83 -292 c63 -57 84 -104 84 -193 0 -126 -65 -227 -180 -282 l-60 -28 -229 0
-230 0 100 70 99 70 100 0 c107 0 174 20 193 57 30 57 21 126 -20 170 l-21 23
29 37 c17 21 43 55 60 75 16 21 30 38 31 38 2 0 21 -17 44 -37z m-211 -151
c38 -19 57 -62 46 -107 -9 -36 -59 -55 -141 -55 l-65 0 0 90 0 90 63 0 c39 0
75 -6 97 -18z m240 -481 c32 -22 68 -58 85 -86 28 -45 30 -56 30 -139 0 -83
-3 -98 -33 -158 -38 -77 -92 -130 -171 -167 -55 -26 -60 -26 -306 -29 l-250
-3 95 95 95 96 107 0 c134 0 204 14 238 49 31 31 44 92 30 141 -10 36 -56 90
-76 90 -7 0 -15 4 -18 8 -6 9 99 142 112 142 4 0 32 -18 62 -39z m-205 -161
c47 -11 75 -41 75 -80 0 -72 -33 -90 -170 -90 l-100 0 0 90 0 90 78 0 c42 0
95 -5 117 -10z"/>
</g>
</svg>
